<svg xmlns="http://www.w3.org/2000/svg" width="768" height="768" viewBox="0 0 768 768">
  <rect width="768" height="768" fill="#fffdf8"/>
  <g fill="none" stroke="#242321" stroke-width="13" stroke-linecap="round" stroke-linejoin="round">
    <path d="M231 474 C183 438 206 351 270 329 C301 247 388 274 409 324 C488 292 557 371 524 432 C566 474 510 540 442 520 C395 579 300 543 289 502 C259 512 238 499 231 474Z"/>
    <path d="M277 363 C297 345 317 363 309 385 C301 399 281 391 277 363Z"/>
    <path d="M420 372 C441 352 461 374 450 393 C437 409 420 397 420 372Z"/>
    <path d="M334 430 C350 414 362 448 381 431 C399 415 407 454 427 437"/>
    <path d="M299 515 L280 614 L318 603 L330 529"/>
    <path d="M436 518 L464 593 L499 582 L475 502"/>
    <path d="M510 406 C581 391 582 335 538 327 C578 357 555 379 520 374"/>
    <path d="M261 321 C227 295 244 264 273 284"/>
    <path d="M352 285 L362 258 M383 287 L393 258"/>
  </g>
</svg>
